<svg id="Capa_1" enable-background="new 0 0 512 512" height="512" viewBox="0 0 512 512" width="512" xmlns="http://www.w3.org/2000/svg"><g><g><path d="m435.535 269.438v-15.574c0-70.888-56.631-128.793-127.026-130.862v-31.926h81.614v-91.076h-193.227v91.076h81.613v31.862h-128.703v-34.904h-98.621v190.935h98.621v-34.904h154.806c5.402 0 9.798 4.396 9.798 9.799v15.574h-25.28v90.728h171.687v-90.728zm-75.412-208.362h-51.614v-31.076h51.614zm-133.227 0v-31.076h51.613v31.076zm-107.09 187.893h-38.621v-130.935h38.621zm184.805-34.905h-154.805v-61.126h154.806c55.649 0 100.924 45.274 100.924 100.925v15.574h-61.126v-15.574c-.001-21.945-17.854-39.799-39.799-39.799zm126.204 116.101h-111.686v-30.728h111.687v30.728z"/></g><g><path d="m384.814 405.386-9.843-8.559-9.843 8.559c-6.044 5.256-36.195 32.877-36.195 60.576 0 25.386 20.652 46.038 46.038 46.038s46.039-20.652 46.039-46.038c.001-27.699-30.152-55.32-36.196-60.576zm-9.842 76.614c-8.844 0-16.038-7.194-16.038-16.038 0-7.414 7.785-18.824 16.038-28.086 8.253 9.262 16.039 20.672 16.039 28.086 0 8.844-7.196 16.038-16.039 16.038z"/></g></g></svg>